<svg width="24" height="18" viewBox="0 0 24 18" fill="none" xmlns="http://www.w3.org/2000/svg">
<path d="M22.979 2.68875C22.2619 1.45219 20.369 1.17375 17.4947 1.87688C16.1639 0.847917 14.5713 0.212793 12.8977 0.0436584C11.2241 -0.125477 9.53655 0.178157 8.02686 0.920066C6.51717 1.66198 5.2458 2.81242 4.35721 4.2407C3.46861 5.66899 2.99839 7.31786 2.99998 9C3.0001 9.38584 3.02452 9.77129 3.07311 10.1541C0.477168 12.8438 0.514668 14.4375 1.02186 15.3113C1.49998 16.14 2.49748 16.5 3.80998 16.5C4.72125 16.4812 5.62715 16.3553 6.50904 16.125C7.83993 17.153 9.43237 17.7872 11.1056 17.9557C12.7788 18.1241 14.4657 17.8201 15.9748 17.0781C17.4839 16.3361 18.7547 15.1858 19.643 13.7579C20.5312 12.33 21.0014 10.6817 21 9C21.0002 8.61605 20.9761 8.23247 20.9278 7.85157C22.0997 6.63282 22.8797 5.475 23.145 4.48407C23.3278 3.79782 23.2725 3.19407 22.979 2.68875ZM12 1.5C13.6987 1.50175 15.3466 2.07931 16.6747 3.13841C18.0029 4.1975 18.9327 5.67555 19.3125 7.33125C17.7131 8.83688 15.5484 10.3809 13.4934 11.5622C10.9106 13.0444 8.66998 13.9688 6.88311 14.475C5.78255 13.4486 5.01651 12.1145 4.68473 10.6466C4.35294 9.17873 4.47077 7.64494 5.02288 6.24494C5.57499 4.84494 6.5358 3.64359 7.78023 2.79729C9.02465 1.95099 10.495 1.49894 12 1.5ZM2.31936 14.5584C2.18248 14.3231 2.25842 13.8797 2.52748 13.3397C2.79355 12.8337 3.11727 12.3603 3.49217 11.9288C3.86379 13.0055 4.43643 14.0019 5.17967 14.865C3.56248 15.1369 2.55373 14.9634 2.31936 14.5584ZM12 16.5C10.7354 16.5013 9.49134 16.1806 8.38498 15.5681C10.4157 14.8499 12.3751 13.9441 14.2378 12.8625C16.2609 11.7009 18.0515 10.4419 19.4944 9.19875C19.4409 11.1517 18.6282 13.0069 17.2288 14.3702C15.8294 15.7335 13.9537 16.4976 12 16.5ZM21.6956 4.09594C21.5362 4.6875 21.1153 5.36438 20.5115 6.07688C20.1409 4.99887 19.5682 4.00139 18.824 3.13782C20.1562 2.9175 21.39 2.93438 21.6834 3.44157C21.7678 3.58875 21.7725 3.80907 21.6956 4.09594Z" fill="#313234"/>
</svg>
