<svg width="40" height="40" viewBox="0 0 40 40" fill="none" xmlns="http://www.w3.org/2000/svg">
<path d="M20 0.5C16.1433 0.5 12.3731 1.64366 9.16639 3.78634C5.95963 5.92903 3.46027 8.97451 1.98436 12.5377C0.508449 16.1008 0.122284 20.0216 0.874696 23.8043C1.62711 27.5869 3.4843 31.0615 6.21143 33.7886C8.93855 36.5157 12.4131 38.3729 16.1957 39.1253C19.9784 39.8777 23.8992 39.4916 27.4623 38.0156C31.0255 36.5397 34.071 34.0404 36.2137 30.8336C38.3564 27.6269 39.5 23.8567 39.5 20C39.4945 14.83 37.4383 9.87322 33.7826 6.21745C30.1268 2.56167 25.1701 0.50546 20 0.5ZM20 36.5C16.7366 36.5 13.5465 35.5323 10.8331 33.7192C8.11969 31.9062 6.00484 29.3293 4.756 26.3143C3.50715 23.2993 3.1804 19.9817 3.81705 16.781C4.45371 13.5803 6.02518 10.6403 8.33275 8.33274C10.6403 6.02517 13.5803 4.4537 16.781 3.81704C19.9817 3.18039 23.2993 3.50714 26.3143 4.75599C29.3293 6.00483 31.9062 8.11968 33.7193 10.8331C35.5323 13.5465 36.5 16.7366 36.5 20C36.495 24.3745 34.7551 28.5685 31.6618 31.6618C28.5685 34.7551 24.3746 36.495 20 36.5ZM15.5 16.25C15.5 16.695 15.368 17.13 15.1208 17.5C14.8736 17.87 14.5222 18.1584 14.111 18.3287C13.6999 18.499 13.2475 18.5436 12.8111 18.4568C12.3746 18.37 11.9737 18.1557 11.659 17.841C11.3443 17.5263 11.1301 17.1254 11.0432 16.689C10.9564 16.2525 11.001 15.8001 11.1713 15.389C11.3416 14.9778 11.63 14.6264 12 14.3792C12.37 14.132 12.805 14 13.25 14C13.8467 14 14.419 14.2371 14.841 14.659C15.263 15.081 15.5 15.6533 15.5 16.25ZM29 16.25C29 16.695 28.868 17.13 28.6208 17.5C28.3736 17.87 28.0222 18.1584 27.611 18.3287C27.1999 18.499 26.7475 18.5436 26.3111 18.4568C25.8746 18.37 25.4737 18.1557 25.159 17.841C24.8444 17.5263 24.6301 17.1254 24.5432 16.689C24.4564 16.2525 24.501 15.8001 24.6713 15.389C24.8416 14.9778 25.13 14.6264 25.5 14.3792C25.87 14.132 26.305 14 26.75 14C27.3467 14 27.919 14.2371 28.341 14.659C28.763 15.081 29 15.6533 29 16.25Z" fill="#313234"/>
</svg>
