<svg width="27" height="19" viewBox="0 0 27 19" fill="none" xmlns="http://www.w3.org/2000/svg">
<path d="M0 1C0 0.734784 0.105357 0.48043 0.292893 0.292893C0.48043 0.105357 0.734784 0 1 0H23C23.2652 0 23.5196 0.105357 23.7071 0.292893C23.8946 0.48043 24 0.734784 24 1C24 1.26522 23.8946 1.51957 23.7071 1.70711C23.5196 1.89464 23.2652 2 23 2H1C0.734784 2 0.48043 1.89464 0.292893 1.70711C0.105357 1.51957 0 1.26522 0 1ZM13 8H1C0.734784 8 0.48043 8.10536 0.292893 8.29289C0.105357 8.48043 0 8.73478 0 9C0 9.26522 0.105357 9.51957 0.292893 9.70711C0.48043 9.89464 0.734784 10 1 10H13C13.2652 10 13.5196 9.89464 13.7071 9.70711C13.8946 9.51957 14 9.26522 14 9C14 8.73478 13.8946 8.48043 13.7071 8.29289C13.5196 8.10536 13.2652 8 13 8ZM13 16H1C0.734784 16 0.48043 16.1054 0.292893 16.2929C0.105357 16.4804 0 16.7348 0 17C0 17.2652 0.105357 17.5196 0.292893 17.7071C0.48043 17.8946 0.734784 18 1 18H13C13.2652 18 13.5196 17.8946 13.7071 17.7071C13.8946 17.5196 14 17.2652 14 17C14 16.7348 13.8946 16.4804 13.7071 16.2929C13.5196 16.1054 13.2652 16 13 16ZM27 13C26.9999 13.1695 26.9567 13.3362 26.8745 13.4845C26.7923 13.6327 26.6738 13.7577 26.53 13.8475L18.53 18.8475C18.3787 18.9421 18.2048 18.9944 18.0264 18.9992C17.848 19.0039 17.6716 18.9607 17.5154 18.8743C17.3593 18.7878 17.2292 18.6611 17.1386 18.5074C17.0479 18.3537 17.0001 18.1785 17 18V8C17.0001 7.82154 17.0479 7.64635 17.1386 7.49262C17.2292 7.33888 17.3593 7.21221 17.5154 7.12573C17.6716 7.03926 17.848 6.99614 18.0264 7.00084C18.2048 7.00555 18.3787 7.05791 18.53 7.1525L26.53 12.1525C26.6738 12.2423 26.7923 12.3673 26.8745 12.5155C26.9567 12.6638 26.9999 12.8305 27 13ZM24.1138 13L19 9.80375V16.1963L24.1138 13Z" fill="#313234"/>
</svg>
